<svg width="541" height="151" viewBox="0 0 541 151" fill="none" xmlns="http://www.w3.org/2000/svg">
<path d="M67.4656 13.3428C56.0692 24.2455 44.2242 38.2836 31.9104 55.4617C21.5124 69.9674 13.2643 82.9355 7.16356 94.3832C-2.0251 111.625 4.50335 133.051 21.7453 142.24C25.3399 144.156 29.2384 145.436 33.2689 146.025C51.4333 148.679 73.9161 150 100.741 150C127.535 150 149.996 148.682 168.149 146.034C187.482 143.215 200.869 125.257 198.049 105.924C197.46 101.882 196.175 97.9723 194.251 94.3688C188.142 82.9251 179.891 69.9617 169.497 55.4617C157.193 38.2969 145.364 24.2674 133.989 13.3687C115.397 -4.44619 86.0719 -4.45761 67.4656 13.3428Z" fill="white"/>
<path fill-rule="evenodd" clip-rule="evenodd" d="M53.7351 110.371C53.7351 118.803 46.9008 125.636 38.4702 125.636C30.0395 125.636 23.2052 118.803 23.2052 110.371C23.2052 101.94 30.0395 95.1065 38.4702 95.1065C46.9008 95.1065 53.7351 101.94 53.7351 110.371ZM177.914 110.371C177.914 118.803 171.08 125.636 162.649 125.636C154.218 125.636 147.384 118.803 147.384 110.371C147.384 101.94 154.218 95.1065 162.649 95.1065C171.08 95.1065 177.914 101.94 177.914 110.371Z" fill="#F5BC40"/>
<path d="M75.9056 95.1065C75.9056 109.872 85.9086 121.154 100.439 121.154C114.968 121.154 124.971 109.872 124.971 95.1065V90.2605H115.279V95.1065C115.279 104.762 109.339 111.462 100.439 111.462C91.5384 111.462 85.5977 104.762 85.5977 95.1065V90.2605H75.9056V95.1065Z" fill="black"/>
<path d="M87.7249 71.0905C82.5513 63.8399 76.1064 59.973 68.6364 59.973C61.1663 59.973 54.7215 63.8399 49.5479 71.0905L57.4374 76.72C60.9083 71.8556 64.5593 69.665 68.6364 69.665C72.7135 69.665 76.3644 71.8556 79.8354 76.72L87.7249 71.0905ZM151.329 71.0905C146.155 63.8399 139.71 59.973 132.24 59.973C124.77 59.973 118.325 63.8399 113.152 71.0905L121.041 76.72C124.512 71.8556 128.163 69.665 132.24 69.665C136.317 69.665 139.968 71.8556 143.439 76.72L151.329 71.0905Z" fill="black"/>
<path d="M67.4656 13.3428C56.0692 24.2455 44.2242 38.2836 31.9104 55.4617C21.5124 69.9674 13.2643 82.9356 7.16358 94.3832C-2.02509 111.625 4.50336 133.051 21.7453 142.24C25.3399 144.156 29.2384 145.436 33.2689 146.025C51.4333 148.679 73.9161 150 100.741 150C127.535 150 149.996 148.682 168.149 146.034C187.482 143.215 200.869 125.257 198.049 105.924C197.46 101.882 196.175 97.9723 194.251 94.3688C188.142 82.9251 179.891 69.9617 169.497 55.4617C157.193 38.2969 145.364 24.2674 133.989 13.3687C115.397 -4.44619 86.0719 -4.45761 67.4656 13.3428ZM74.1655 20.3461C89.0225 6.13266 112.438 6.14178 127.284 20.3667C138.19 30.8171 149.643 44.3991 161.62 61.1084C171.783 75.2853 179.811 87.8992 185.701 98.9332C187.098 101.549 188.031 104.388 188.459 107.322C190.506 121.359 180.787 134.397 166.75 136.444C149.112 139.016 127.101 140.308 100.741 140.308C74.3507 140.308 52.319 139.013 34.67 136.435C31.7437 136.007 28.9133 135.078 26.3035 133.687C13.7854 127.016 9.04558 111.459 15.7168 98.9414C21.5979 87.9059 29.6224 75.2893 39.7877 61.1084C51.7734 44.3878 63.2394 30.7988 74.1655 20.3461Z" fill="black"/>
<path d="M241.294 69.2721V19.7947H251.003V22.8872C252.49 21.6886 254.144 20.7896 255.966 20.1902C257.788 19.5909 259.681 19.2913 261.647 19.2913C264.284 19.2913 266.765 19.7947 269.091 20.8016C271.416 21.8084 273.442 23.1749 275.168 24.9009C276.894 26.627 278.248 28.6647 279.231 31.014C280.214 33.3634 280.706 35.8805 280.706 38.5655C280.706 41.2505 280.202 43.7676 279.195 46.117C278.188 48.4664 276.822 50.504 275.096 52.2301C273.37 53.9562 271.32 55.3106 268.947 56.2935C266.574 57.2764 264.044 57.7679 261.359 57.7679C259.538 57.7679 257.752 57.5161 256.002 57.0127C254.252 56.5093 252.633 55.7781 251.147 54.8192V69.2721H241.294ZM260.065 27.7058C258.291 27.7058 256.637 28.0054 255.103 28.6048C253.568 29.2041 252.25 30.0791 251.147 31.2298V45.9732C252.202 47.028 253.508 47.867 255.067 48.4903C256.625 49.1136 258.291 49.4253 260.065 49.4253C263.134 49.4253 265.723 48.3825 267.832 46.2968C269.942 44.2111 270.997 41.6341 270.997 38.5655C270.997 35.497 269.93 32.9199 267.796 30.8342C265.663 28.7486 263.086 27.7058 260.065 27.7058ZM291.584 57.2644V19.7947H301.437V23.8941C302.636 22.2639 304.086 21.0293 305.788 20.1902C307.49 19.3512 309.372 18.9317 311.434 18.9317C312.393 18.9796 313.196 19.0635 313.843 19.1834C314.49 19.3033 315.054 19.507 315.533 19.7947V28.425C314.814 28.0893 314.023 27.8376 313.16 27.6698C312.297 27.502 311.41 27.4181 310.499 27.4181C308.581 27.4181 306.819 27.8976 305.213 28.8565C303.607 29.8154 302.348 31.2058 301.437 33.0278V57.2644H291.584ZM322.169 38.5655C322.169 35.8326 322.684 33.2795 323.715 30.9062C324.746 28.5328 326.16 26.4712 327.958 24.7211C329.756 22.9711 331.878 21.5927 334.323 20.5858C336.768 19.5789 339.381 19.0755 342.162 19.0755C344.943 19.0755 347.556 19.5789 350.001 20.5858C352.447 21.5927 354.568 22.9711 356.366 24.7211C358.164 26.4712 359.578 28.5328 360.609 30.9062C361.64 33.2795 362.156 35.8326 362.156 38.5655C362.156 41.2985 361.64 43.8515 360.609 46.2249C359.578 48.5982 358.164 50.6479 356.366 52.3739C354.568 54.1 352.447 55.4664 350.001 56.4733C347.556 57.4802 344.943 57.9836 342.162 57.9836C339.381 57.9836 336.768 57.4802 334.323 56.4733C331.878 55.4664 329.756 54.1 327.958 52.3739C326.16 50.6479 324.746 48.5982 323.715 46.2249C322.684 43.8515 322.169 41.2985 322.169 38.5655ZM342.162 49.4253C345.039 49.4253 347.484 48.3705 349.498 46.2608C351.512 44.1512 352.518 41.5861 352.518 38.5655C352.518 35.497 351.512 32.9079 349.498 30.7983C347.484 28.6887 345.039 27.6339 342.162 27.6339C339.285 27.6339 336.84 28.6887 334.826 30.7983C332.813 32.9079 331.806 35.497 331.806 38.5655C331.806 41.5861 332.813 44.1512 334.826 46.2608C336.84 48.3705 339.285 49.4253 342.162 49.4253ZM401.298 57.2644V54.1719C399.812 55.3706 398.158 56.2695 396.336 56.8689C394.514 57.4682 392.62 57.7679 390.654 57.7679C388.017 57.7679 385.536 57.2644 383.211 56.2576C380.885 55.2507 378.86 53.8843 377.134 52.1582C375.408 50.4321 374.053 48.3944 373.07 46.0451C372.087 43.6957 371.596 41.1786 371.596 38.4936C371.596 35.8086 372.099 33.2915 373.106 30.9421C374.113 28.5928 375.479 26.5551 377.206 24.829C378.932 23.103 380.981 21.7485 383.355 20.7656C385.728 19.7827 388.257 19.2913 390.942 19.2913C392.764 19.2913 394.55 19.543 396.3 20.0464C398.05 20.5498 399.668 21.281 401.155 22.2399V10.1576L411.007 8V57.2644H401.298ZM381.305 38.4936C381.305 41.5142 382.36 44.0793 384.469 46.1889C386.579 48.2986 389.168 49.3534 392.237 49.3534C394.059 49.3534 395.725 49.0417 397.235 48.4184C398.745 47.7951 400.052 46.9081 401.155 45.7574V31.1579C400.1 30.0551 398.793 29.1921 397.235 28.5688C395.677 27.9455 394.011 27.6339 392.237 27.6339C389.12 27.6339 386.519 28.6767 384.433 30.7623C382.348 32.848 381.305 35.425 381.305 38.4936ZM433.177 19.7947V41.5861C433.177 43.9834 433.884 45.9012 435.299 47.3396C436.713 48.778 438.595 49.4972 440.945 49.4972C442.623 49.4972 444.121 49.1736 445.439 48.5263C446.758 47.879 447.849 46.9561 448.712 45.7574V19.7947H458.565V57.2644H448.712V54.2438C447.273 55.4425 445.667 56.3654 443.893 57.0127C442.119 57.66 440.201 57.9836 438.14 57.9836C433.825 57.9836 430.277 56.5812 427.496 53.7764C424.715 50.9715 423.324 47.3876 423.324 43.0245V19.7947H433.177ZM489.437 49.3534C491.115 49.3534 492.685 49.0177 494.147 48.3465C495.61 47.6752 497.012 46.6204 498.355 45.1821L504.252 51.2952C502.334 53.4048 500.033 55.0469 497.348 56.2216C494.663 57.3963 491.882 57.9836 489.005 57.9836C486.272 57.9836 483.695 57.4802 481.274 56.4733C478.853 55.4664 476.767 54.1 475.017 52.3739C473.267 50.6479 471.889 48.5982 470.882 46.2249C469.875 43.8515 469.371 41.2985 469.371 38.5655C469.371 35.8326 469.875 33.2795 470.882 30.9062C471.889 28.5328 473.267 26.4712 475.017 24.7211C476.767 22.9711 478.853 21.5927 481.274 20.5858C483.695 19.5789 486.272 19.0755 489.005 19.0755C491.978 19.0755 494.831 19.6628 497.564 20.8375C500.296 22.0122 502.622 23.6543 504.54 25.764L498.499 32.1647C497.156 30.6784 495.718 29.5517 494.183 28.7846C492.649 28.0174 490.995 27.6339 489.221 27.6339C486.392 27.6339 484.007 28.6887 482.065 30.7983C480.123 32.9079 479.152 35.497 479.152 38.5655C479.152 41.6341 480.147 44.1992 482.137 46.2608C484.127 48.3225 486.56 49.3534 489.437 49.3534ZM520.021 46.6924V28.0654H512.326V19.7947H520.021V10.2295L529.874 8V19.7947H540.518V28.0654H529.874V44.6786C529.874 46.4526 530.258 47.6992 531.025 48.4184C531.792 49.1376 533.134 49.4972 535.052 49.4972C535.963 49.4972 536.826 49.4373 537.641 49.3174C538.456 49.1975 539.343 48.9698 540.302 48.6342V56.6891C539.247 57.0247 537.977 57.3004 536.491 57.5161C535.004 57.7319 533.734 57.8398 532.679 57.8398C528.508 57.8398 525.355 56.8929 523.222 54.999C521.088 53.1051 520.021 50.3363 520.021 46.6924Z" fill="black"/>
<path d="M241.294 136V86.5226H251.003V89.6151C252.49 88.4165 254.144 87.5175 255.966 86.9182C257.788 86.3189 259.681 86.0192 261.647 86.0192C264.284 86.0192 266.765 86.5226 269.091 87.5295C271.416 88.5364 273.442 89.9028 275.168 91.6289C276.894 93.3549 278.248 95.3926 279.231 97.742C280.214 100.091 280.706 102.608 280.706 105.293C280.706 107.978 280.202 110.496 279.195 112.845C278.188 115.194 276.822 117.232 275.096 118.958C273.37 120.684 271.32 122.039 268.947 123.021C266.574 124.004 264.044 124.496 261.359 124.496C259.538 124.496 257.752 124.244 256.002 123.741C254.252 123.237 252.633 122.506 251.147 121.547V136H241.294ZM260.065 94.4337C258.291 94.4337 256.637 94.7334 255.103 95.3327C253.568 95.932 252.25 96.807 251.147 97.9577V112.701C252.202 113.756 253.508 114.595 255.067 115.218C256.625 115.842 258.291 116.153 260.065 116.153C263.134 116.153 265.723 115.11 267.832 113.025C269.942 110.939 270.997 108.362 270.997 105.293C270.997 102.225 269.93 99.6478 267.796 97.5622C265.663 95.4765 263.086 94.4337 260.065 94.4337ZM325.458 119.318C323.157 121.188 320.795 122.554 318.374 123.417C315.953 124.28 313.256 124.712 310.283 124.712C307.454 124.712 304.805 124.208 302.336 123.201C299.867 122.194 297.733 120.828 295.935 119.102C294.137 117.376 292.723 115.326 291.692 112.953C290.661 110.579 290.146 108.026 290.146 105.293C290.146 102.608 290.637 100.079 291.62 97.706C292.603 95.3327 293.958 93.271 295.684 91.521C297.41 89.771 299.459 88.3925 301.833 87.3857C304.206 86.3788 306.735 85.8754 309.42 85.8754C312.057 85.8754 314.514 86.3908 316.792 87.4216C319.069 88.4525 321.035 89.8549 322.689 91.6289C324.343 93.4029 325.638 95.5245 326.573 97.9937C327.508 100.463 327.975 103.136 327.975 106.013V108.602H300.071C300.742 110.951 302.037 112.845 303.954 114.283C305.872 115.722 308.126 116.441 310.715 116.441C312.345 116.441 313.879 116.177 315.318 115.65C316.756 115.122 317.979 114.379 318.985 113.42L325.458 119.318ZM309.204 94.0022C306.951 94.0022 305.009 94.6854 303.379 96.0519C301.749 97.4184 300.622 99.2523 299.999 101.554H318.338C317.715 99.3482 316.576 97.5382 314.922 96.1238C313.268 94.7094 311.362 94.0022 309.204 94.0022ZM337.416 105.293C337.416 102.561 337.931 100.007 338.962 97.6341C339.993 95.2608 341.407 93.1991 343.205 91.4491C345.003 89.699 347.125 88.3206 349.57 87.3137C352.015 86.3069 354.628 85.8034 357.409 85.8034C360.19 85.8034 362.803 86.3069 365.248 87.3137C367.693 88.3206 369.815 89.699 371.613 91.4491C373.411 93.1991 374.825 95.2608 375.856 97.6341C376.887 100.007 377.402 102.561 377.402 105.293C377.402 108.026 376.887 110.579 375.856 112.953C374.825 115.326 373.411 117.376 371.613 119.102C369.815 120.828 367.693 122.194 365.248 123.201C362.803 124.208 360.19 124.712 357.409 124.712C354.628 124.712 352.015 124.208 349.57 123.201C347.125 122.194 345.003 120.828 343.205 119.102C341.407 117.376 339.993 115.326 338.962 112.953C337.931 110.579 337.416 108.026 337.416 105.293ZM357.409 116.153C360.286 116.153 362.731 115.098 364.745 112.989C366.758 110.879 367.765 108.314 367.765 105.293C367.765 102.225 366.758 99.6359 364.745 97.5262C362.731 95.4166 360.286 94.3618 357.409 94.3618C354.532 94.3618 352.087 95.4166 350.073 97.5262C348.059 99.6359 347.053 102.225 347.053 105.293C347.053 108.314 348.059 110.879 350.073 112.989C352.087 115.098 354.532 116.153 357.409 116.153ZM388.281 136V86.5226H397.99V89.6151C399.476 88.4165 401.131 87.5175 402.952 86.9182C404.774 86.3189 406.668 86.0192 408.634 86.0192C411.271 86.0192 413.752 86.5226 416.078 87.5295C418.403 88.5364 420.429 89.9028 422.155 91.6289C423.881 93.3549 425.235 95.3926 426.218 97.742C427.201 100.091 427.693 102.608 427.693 105.293C427.693 107.978 427.189 110.496 426.182 112.845C425.175 115.194 423.809 117.232 422.083 118.958C420.357 120.684 418.307 122.039 415.934 123.021C413.561 124.004 411.031 124.496 408.346 124.496C406.524 124.496 404.738 124.244 402.988 123.741C401.238 123.237 399.62 122.506 398.134 121.547V136H388.281ZM407.052 94.4337C405.278 94.4337 403.624 94.7334 402.089 95.3327C400.555 95.932 399.237 96.807 398.134 97.9577V112.701C399.189 113.756 400.495 114.595 402.053 115.218C403.612 115.842 405.278 116.153 407.052 116.153C410.12 116.153 412.709 115.11 414.819 113.025C416.929 110.939 417.984 108.362 417.984 105.293C417.984 102.225 416.917 99.6478 414.783 97.5622C412.65 95.4765 410.072 94.4337 407.052 94.4337ZM448.424 74.515V123.992H438.571V76.6726L448.424 74.515ZM494.543 119.318C492.242 121.188 489.88 122.554 487.459 123.417C485.038 124.28 482.341 124.712 479.368 124.712C476.539 124.712 473.89 124.208 471.421 123.201C468.952 122.194 466.818 120.828 465.02 119.102C463.222 117.376 461.808 115.326 460.777 112.953C459.746 110.579 459.231 108.026 459.231 105.293C459.231 102.608 459.722 100.079 460.705 97.706C461.688 95.3327 463.043 93.271 464.769 91.521C466.495 89.771 468.544 88.3925 470.918 87.3857C473.291 86.3788 475.82 85.8754 478.505 85.8754C481.142 85.8754 483.599 86.3908 485.877 87.4216C488.154 88.4525 490.12 89.8549 491.774 91.6289C493.428 93.4029 494.723 95.5245 495.658 97.9937C496.593 100.463 497.06 103.136 497.06 106.013V108.602H469.156C469.827 110.951 471.121 112.845 473.039 114.283C474.957 115.722 477.211 116.441 479.8 116.441C481.43 116.441 482.964 116.177 484.402 115.65C485.841 115.122 487.063 114.379 488.07 113.42L494.543 119.318ZM478.289 94.0022C476.036 94.0022 474.094 94.6854 472.464 96.0519C470.834 97.4184 469.707 99.2523 469.084 101.554H487.423C486.8 99.3482 485.661 97.5382 484.007 96.1238C482.353 94.7094 480.447 94.0022 478.289 94.0022Z" fill="black"/>
<path d="M531.979 112.989C533.609 112.989 534.999 113.564 536.15 114.715C537.301 115.866 537.876 117.256 537.876 118.886C537.876 120.468 537.301 121.835 536.15 122.986C534.999 124.136 533.609 124.712 531.979 124.712C530.396 124.712 529.03 124.136 527.879 122.986C526.728 121.835 526.153 120.468 526.153 118.886C526.153 117.256 526.728 115.866 527.879 114.715C529.03 113.564 530.396 112.989 531.979 112.989Z" fill="#F5BC40"/>
</svg>
